# xmcd CD database file
#
# Track frame offsets:
#	150
#	23133
#	33723
#	45925
#	63260
#	75958
#	85163
#	100825
#	111973
#	123905
#	138108
#	152225
#	171603
#	189158
#	199053
#	217705
#	232815
#	248605
#	260245
#	271148
#	282630
#
# Disc length: 3971 seconds
#
# Revision: 0
# Processed by: cddbd v1.5.2PL0 Copyright (c) Steve Scherf et al.
# Submitted via: CDex 1.51
#
DISCID=170f8115
DTITLE=J.J. Cale - Anyway The Wind Blows The Anthology CD1
DYEAR=1900
DGENRE=Blues
TTITLE0=Sensitive Kind
TTITLE1=Carry On
TTITLE2=Runaround
TTITLE3=Mama Don't
TTITLE4=City Girls
TTITLE5=Devil In Disguise
TTITLE6=You Keep Me Hanging On
TTITLE7=Downtown L.A.
TTITLE8=A Thing Going On
TTITLE9=Don't Wait
TTITLE10=Wish I Had Me A Dollar
TTITLE11=Money Talks
TTITLE12=Hard Times
TTITLE13=People Lie
TTITLE14=Unemployment
TTITLE15=Trouble In The City
TTITLE16=Santa Cruz
TTITLE17=Shanghaid
TTITLE18=Change Your Mind
TTITLE19=New Orleans
TTITLE20=Humdinger
EXTD=
EXTT0=
EXTT1=
EXTT2=
EXTT3=
EXTT4=
EXTT5=
EXTT6=
EXTT7=
EXTT8=
EXTT9=
EXTT10=
EXTT11=
EXTT12=
EXTT13=
EXTT14=
EXTT15=
EXTT16=
EXTT17=
EXTT18=
EXTT19=
EXTT20=
PLAYORDER=
